<svg xmlns="http://www.w3.org/2000/svg" viewBox="0 0 240.84 63.13"><defs><style>.cls-1{fill:#1b1c23;}.cls-2,.cls-3{fill:none;stroke:#c8995d;stroke-miterlimit:10;stroke-width:1.28px;}.cls-3{stroke-dasharray:3.89 3.89;}.cls-4{fill:#c8995d;}.cls-5{fill:#efe4d1;}</style></defs><title>Asset 2</title><g id="Layer_2" data-name="Layer 2"><g id="Layer_1-2" data-name="Layer 1"><path class="cls-1" d="M107.57,32.56c-5.15,0-7.68-2.92-10.24-5.79-4.52,3.29-9.75,5.82-15.42,5.83-6.5,0-9.39-3.93-7-8.27,2.27-4,7.73-6.62,12.11-6.62a20,20,0,0,1,10.12,3c1.64-1.47,3.23-3,4.88-4.57-7.88-1-12.75-4.9-10.34-9.2C94.27,2.41,100.11.45,104.34.44c3.81,0,5.36,1.54,6.4,3.27a1.06,1.06,0,0,1,.12,1.06,1.58,1.58,0,0,1-1.06.71,1.46,1.46,0,0,1-1-.53,5.65,5.65,0,0,0-4.1-1.5,6.18,6.18,0,0,0-5.74,3.07c-1.69,3,0,6.11,6,6.94l.91-.79c10-9.1,16-12.66,21.74-12.67,4.79,0,5.78,3.09,4.29,5.75-2.62,4.66-12.26,9.82-23,10.54-2.08,2.13-4.53,4.66-7.36,7.15,3.55,2.3,7,4.42,11.32,4.41a10.69,10.69,0,0,0,6.43-2.09,2.8,2.8,0,0,1,1.38-.63c.56,0,.86.4.58.89a5.63,5.63,0,0,1-1.06,1.06S113.5,32.54,107.57,32.56ZM94,23.41a9.8,9.8,0,0,0-6.31-2.16c-3.76,0-7,1.61-8.55,4.31-1.14,2,0,3.59,2.73,3.58C85.81,29.14,89.88,26.74,94,23.41Zm17.86-10.09c6.89-1.25,14.27-5.7,16.09-8.93.42-.76.18-1.51-.91-1.51C124.18,2.89,120.81,4.75,111.88,13.32Z"/><path class="cls-1" d="M124,32.53c-5.21,0-7.43-2.74-5.31-6.51,3.81-6.78,12.87-11.27,17.35-11.28,3.15,0,4.38,2.3,3.06,4.65A14.71,14.71,0,0,1,127,26a13,13,0,0,1-1.81-.26c-1.47,2.62-.25,4.12,2.22,4.12,4.9,0,10.23-4.1,10.23-4.1A2.82,2.82,0,0,1,139,25.1c.57,0,.86.4.58.89a6,6,0,0,1-1.06,1.06S131.8,32.51,124,32.53Zm12.54-14.65c.33-.57.14-.88-.43-.88-2.83,0-8.33,4.58-9.63,6.88C130.21,23.88,135.47,19.75,136.51,17.88Z"/><path class="cls-1" d="M151.08,32.48c-2.84,0-4.33-1.28-3.3-3.76,0,0-5.51,3.77-9.43,3.78-2.79,0-4.09-1.9-2.57-4.6,3.59-6.39,13.58-13.19,19.25-13.19,4.18,0,4.45,2.07,4.45,2.07,1.55,0,3.36.53,2.49,2.08-.75,1.33-6.57,6.39-8.27,9.4-.4.71-.13,1.25.75,1.24,2.78,0,7.65-3.82,7.65-3.82a2.82,2.82,0,0,1,1.38-.62c.57,0,.86.39.59.88A6.11,6.11,0,0,1,163,27S156.18,32.47,151.08,32.48Zm3.59-15.2c-3,0-10.08,6.13-12.18,9.85-.72,1.29-.7,2,.38,2,2.47,0,10.67-6.54,12.58-9.95C156.18,17.89,155.7,17.27,154.67,17.28Z"/><path class="cls-1" d="M176.12,25.66A2.86,2.86,0,0,1,177.5,25c.57,0,.86.4.59.89A6,6,0,0,1,177,27s-6.83,5.46-11.93,5.47c-3.25,0-6.1-2.16-4.36-5.26,1.37-2.44,5.7-7.5,10.1-12.11h-1.39c-.26,0-.34-.13-.19-.4a4.48,4.48,0,0,1,2.42-1.55h1c2.37-2.39,4.6-4.52,6.32-5.94a3,3,0,0,1,1.87-.85c1.54,0,3,1.86,2.52,2.65-.22.4-1.86,2-4,4.13h3.45c.26,0,.34.13.19.39a4.67,4.67,0,0,1-2.42,1.56h-3.19C173.52,19,168.82,24,167,27.18c-.75,1.33-.06,2.3,1.44,2.3C171.25,29.47,176.12,25.66,176.12,25.66Z"/><path class="cls-1" d="M186.45,27.54c1.79-3.19,6.28-6.43,7.21-8.07.49-.89.31-1.29-.42-1.29-3.6,0-10.69,5.29-15.22,13.36a1.51,1.51,0,0,1-1.43.89c-2.06,0-4.65-.7-3.7-2.38,4.15-7.41,23.39-28.93,33-28.95A2.65,2.65,0,0,1,208.32,5C206.25,8.68,196,15.39,195.39,15.74a14.1,14.1,0,0,1,4.9-1.11,1.92,1.92,0,0,1,1.58,3c-1.54,2.75-7,6.61-9,10.07-.57,1-.33,1.69.7,1.69,2.79,0,7.66-3.83,7.66-3.83a2.82,2.82,0,0,1,1.38-.62c.56,0,.86.4.58.88a5.78,5.78,0,0,1-1.06,1.07s-6.82,5.46-11.93,5.47C186.34,32.42,184.83,30.42,186.45,27.54ZM205.34,4.07c-1.91,0-8.78,5.91-16.56,13.81,5-2.53,15.52-10.22,17-12.92C206.12,4.42,206,4.07,205.34,4.07Z"/><path class="cls-1" d="M206,32.38c-5.21,0-7.43-2.73-5.31-6.5,3.81-6.79,12.87-11.28,17.35-11.29,3.15,0,4.38,2.3,3.06,4.65A14.71,14.71,0,0,1,209,25.82a13,13,0,0,1-1.81-.26c-1.47,2.61-.25,4.12,2.22,4.11,4.9,0,10.23-4.09,10.23-4.09a2.82,2.82,0,0,1,1.38-.62c.57,0,.86.39.58.88a5.78,5.78,0,0,1-1.06,1.07S213.86,32.37,206,32.38Zm12.54-14.64c.32-.58.14-.89-.43-.89-2.83,0-8.34,4.58-9.63,6.89C212.27,23.73,217.53,19.6,218.57,17.74Z"/><path class="cls-1" d="M224.86,27.92c2.19-3.9,7.15-7,7.92-8.35.5-.88-2.49-1.05-2.49-1.05a93,93,0,0,1-9.71,8.39,3,3,0,0,1-1.5.66.61.61,0,0,1-.56-.93,4.77,4.77,0,0,1,1.16-1.06,59.47,59.47,0,0,0,8.92-7.9s-1.11-1.06.14-3.28a7.22,7.22,0,0,1,4.83-3.29c1.44,0,2.4,1.41,1.9,2.3-.65,1.15-1.72,1.87-2.11,2.57s.4.94,1.64.93c2.32,0,3.36-.58,4.6-.58s1.57,1,.92,2.12c-1.12,2-7.05,5.78-9.07,9.37-.57,1-.2,1.55.62,1.55,1.24,0,3.56-1.47,3.56-1.47a3,3,0,0,1,1.43-.62.62.62,0,0,1,.59,1,4.73,4.73,0,0,1-1.12,1s-4.47,3.11-8,3.11S223.49,30.36,224.86,27.92Z"/><path class="cls-1" d="M81.41,58.31l.2.54.21-.54a4,4,0,0,1,.25-.51L86.89,49a.57.57,0,0,1,.27-.27,1.11,1.11,0,0,1,.4,0H89V63H87.29V52.49c0-.14,0-.29,0-.45l0-.49-4.88,8.92a.77.77,0,0,1-.7.45h-.28a.77.77,0,0,1-.7-.45l-5-8.95c0,.17,0,.34,0,.51s0,.32,0,.46V63H74.15V48.71h1.42a1.11,1.11,0,0,1,.4,0,.57.57,0,0,1,.27.27l4.92,8.78A4.66,4.66,0,0,1,81.41,58.31Z"/><path class="cls-1" d="M107.79,63H106.3a.7.7,0,0,1-.42-.13.88.88,0,0,1-.24-.33l-1.33-3.45h-6.4l-1.33,3.45a.9.9,0,0,1-.24.32.64.64,0,0,1-.42.14H94.43l5.7-14.26h2Zm-9.34-5.3h5.32l-2.24-5.8a12.62,12.62,0,0,1-.43-1.34q-.1.4-.21.75c-.07.23-.14.43-.2.6Z"/><path class="cls-1" d="M122.83,60a.41.41,0,0,1,.29.13l.75.83a6.17,6.17,0,0,1-2.12,1.58,7.22,7.22,0,0,1-3,.57,7,7,0,0,1-2.8-.54,6.11,6.11,0,0,1-2.14-1.49,6.7,6.7,0,0,1-1.37-2.3,8.51,8.51,0,0,1-.49-3,8,8,0,0,1,.52-3,6.72,6.72,0,0,1,1.47-2.31,6.48,6.48,0,0,1,2.26-1.5,7.63,7.63,0,0,1,2.92-.53,7,7,0,0,1,2.71.48,6.88,6.88,0,0,1,2,1.33l-.62.88a.87.87,0,0,1-.16.17.48.48,0,0,1-.26.06.54.54,0,0,1-.28-.09l-.34-.24c-.13-.09-.29-.19-.47-.29a3.7,3.7,0,0,0-.63-.3,5.26,5.26,0,0,0-.86-.24,6.19,6.19,0,0,0-1.12-.09,5.46,5.46,0,0,0-2.1.39,4.79,4.79,0,0,0-1.64,1.12,5.41,5.41,0,0,0-1.07,1.77,6.92,6.92,0,0,0-.38,2.34,7,7,0,0,0,.38,2.38,5.43,5.43,0,0,0,1,1.77,4.31,4.31,0,0,0,1.57,1.09,4.85,4.85,0,0,0,2,.38,7.92,7.92,0,0,0,1.14-.07,4.46,4.46,0,0,0,.94-.24,3.82,3.82,0,0,0,.81-.4,5.42,5.42,0,0,0,.75-.58A.49.49,0,0,1,122.83,60Z"/><path class="cls-1" d="M141.57,63h-1.94V56.48H132V63H130V48.71H132v6.35h7.68V48.71h1.94Z"/><path class="cls-1" d="M151,63H149V48.71H151Z"/><path class="cls-1" d="M159.75,48.77A.92.92,0,0,1,160,49l8.26,10.75c0-.17,0-.34,0-.5s0-.32,0-.47V48.71h1.7V63h-1a.86.86,0,0,1-.38-.08,1.09,1.09,0,0,1-.31-.27L160,51.88a4.15,4.15,0,0,1,0,.49c0,.16,0,.3,0,.44V63h-1.69V48.71h1A.91.91,0,0,1,159.75,48.77Z"/><path class="cls-1" d="M185.81,48.71v1.57H179V55h5.54v1.52H179v4.86h6.85V63H177V48.71Z"/><path class="cls-1" d="M209.68,60a.39.39,0,0,1,.29.13l.75.83a6.17,6.17,0,0,1-2.12,1.58,7.22,7.22,0,0,1-3,.57,7,7,0,0,1-2.8-.54,6.11,6.11,0,0,1-2.14-1.49,6.86,6.86,0,0,1-1.37-2.3,8.51,8.51,0,0,1-.49-3,8,8,0,0,1,.53-3,6.55,6.55,0,0,1,1.46-2.31,6.43,6.43,0,0,1,2.27-1.5,7.61,7.61,0,0,1,2.91-.53,6.4,6.4,0,0,1,4.73,1.81l-.62.88a.87.87,0,0,1-.16.17.48.48,0,0,1-.26.06.48.48,0,0,1-.27-.09c-.1-.07-.22-.14-.35-.24l-.46-.29a3.82,3.82,0,0,0-.64-.3,5.26,5.26,0,0,0-.86-.24,6.19,6.19,0,0,0-1.12-.09,5.49,5.49,0,0,0-2.1.39,4.66,4.66,0,0,0-1.63,1.12,5.09,5.09,0,0,0-1.07,1.77,6.68,6.68,0,0,0-.39,2.34,6.79,6.79,0,0,0,.39,2.38,5.25,5.25,0,0,0,1,1.77,4.31,4.31,0,0,0,1.57,1.09,4.85,4.85,0,0,0,2,.38,7.83,7.83,0,0,0,1.14-.07,4.46,4.46,0,0,0,.94-.24,3.82,3.82,0,0,0,.81-.4,5.42,5.42,0,0,0,.75-.58A.49.49,0,0,1,209.68,60Z"/><path class="cls-1" d="M230.11,55.84a8.18,8.18,0,0,1-.51,2.94,6.68,6.68,0,0,1-1.43,2.3,6.27,6.27,0,0,1-2.23,1.5,7.87,7.87,0,0,1-5.73,0,6.32,6.32,0,0,1-2.22-1.5,6.53,6.53,0,0,1-1.43-2.3,8.73,8.73,0,0,1,0-5.88A6.67,6.67,0,0,1,218,50.59a6.48,6.48,0,0,1,2.22-1.51,8,8,0,0,1,5.73,0,6.43,6.43,0,0,1,2.23,1.51,6.82,6.82,0,0,1,1.43,2.31A8.18,8.18,0,0,1,230.11,55.84Zm-2,0a7.22,7.22,0,0,0-.36-2.36,5.14,5.14,0,0,0-1-1.76,4.31,4.31,0,0,0-1.6-1.11,5.77,5.77,0,0,0-4.17,0,4.35,4.35,0,0,0-1.59,1.11,4.86,4.86,0,0,0-1,1.76,7.22,7.22,0,0,0-.36,2.36,7.12,7.12,0,0,0,.36,2.35,4.9,4.9,0,0,0,1,1.77,4.45,4.45,0,0,0,1.59,1.1,5.91,5.91,0,0,0,4.17,0,4.4,4.4,0,0,0,1.6-1.1,5.19,5.19,0,0,0,1-1.77A7.12,7.12,0,0,0,228.13,55.84Z"/><path class="cls-1" d="M234.94,61.87a1.37,1.37,0,0,1,.09-.49,1.16,1.16,0,0,1,.26-.39,1.05,1.05,0,0,1,.39-.27,1.16,1.16,0,0,1,.49-.1,1.19,1.19,0,0,1,.49.1,1.33,1.33,0,0,1,.66.66,1.37,1.37,0,0,1,.09.49,1.3,1.3,0,0,1-.09.49,1.18,1.18,0,0,1-.27.4,1.16,1.16,0,0,1-.39.26,1.38,1.38,0,0,1-.49.1,1.34,1.34,0,0,1-.49-.1,1.16,1.16,0,0,1-.39-.26,1.31,1.31,0,0,1-.26-.4A1.3,1.3,0,0,1,234.94,61.87Z"/><line class="cls-2" x1="74.27" y1="40.87" x2="76.2" y2="40.87"/><line class="cls-3" x1="80.09" y1="40.87" x2="233.9" y2="40.87"/><line class="cls-2" x1="235.85" y1="40.87" x2="237.77" y2="40.87"/><path class="cls-1" d="M58.55,18.34V14.61a1.43,1.43,0,0,0-1.42-1.43h-2.4v-6a2.3,2.3,0,1,0-4.59,0v2.94H45.39a6,6,0,0,0-.5-.61A5.22,5.22,0,0,0,41,8.1h-.81V3a.41.41,0,1,0-.82,0V8.15c-1.62.09-3.22.3-5.11.54A130.94,130.94,0,0,1,15,9.93c-2.11,0-4.25-3-4.9-4.21a.83.83,0,0,0-.72-.43H7.85v-.6L8,4.64a.8.8,0,0,0,.23-.15A1,1,0,0,0,8,4.33a1.24,1.24,0,0,0-.52-.11,1.21,1.21,0,0,0-.52.11.92.92,0,0,0-.24.16.92.92,0,0,0,.24.16l.11,0v.6H6.41a.82.82,0,0,0-.82.82V24.5a.81.81,0,0,0,.75.81l.32,5.22H6.43a1.83,1.83,0,0,0-.08-.25,1,1,0,0,0-.16-.23,1,1,0,0,0-.16.23,1.24,1.24,0,0,0-.11.52,1.21,1.21,0,0,0,.11.52.92.92,0,0,0,.16.24.92.92,0,0,0,.16-.24,1.35,1.35,0,0,0,.08-.24h.26l.13,2.17.33-5.5h.27a.85.85,0,0,0,.09.24.7.7,0,0,0,.16.24A.77.77,0,0,0,7.82,28a1.19,1.19,0,0,0,0-1,.8.8,0,0,0-.15-.23,1,1,0,0,0-.16.23,1.06,1.06,0,0,0-.09.25H7.18l.12-1.88H9.15a.82.82,0,0,0,.81-.67c.4-2.11,2.1-7.59,5.07-7.59H16.2c1.87,0,6.84,0,11.15.41,6.32.61,7.67,1.75,8,2.21s.83,2.3-1,8.41c-.66,2.21-1.42,4.29-1.9,5.52H1.61A1.61,1.61,0,0,0,0,35.22v2.66c10.54,8.2,9.39,23.29,9.39,23.29L45.88,45,61,38.67h0V35.22a1.62,1.62,0,0,0-1.62-1.61H47.6a25.57,25.57,0,0,1-.49-3.23h1.41A1.43,1.43,0,0,0,49.94,29V25.24h7.24a1.44,1.44,0,0,0,1.23-.81M57.13,14.06a.54.54,0,0,1,.54.55v3.51l-.61-3.77-.45,2.77A9.4,9.4,0,0,1,55,14.06ZM52.44,5.85a1.32,1.32,0,0,1,1.32,1.32v.34c-.11,3.17-.29,5.55-.5,7.32l-.37-8L52.33,19c-.63,1.24-1.21.05-1.21-.88v-11A1.32,1.32,0,0,1,52.44,5.85Zm-6.5,5.27H49.4l-2.34.28,3.08.36v.63H46.36A7.56,7.56,0,0,0,45.94,11.12Zm-1.85,7.67a1.47,1.47,0,0,0-.43-.46,1.32,1.32,0,0,0-.46-.23,1.2,1.2,0,0,0-.39-.06.76.76,0,0,0-.24,0h-.08l.08,0,.21.07a1.33,1.33,0,0,1,.3.17,1.6,1.6,0,0,1,.31.28,1.52,1.52,0,0,1,.24.41,1.35,1.35,0,0,1,.09.5v.06a1.24,1.24,0,1,0-1.3,1.27h0a1.41,1.41,0,0,1-.49-.09,1.33,1.33,0,0,1-.4-.24,1.39,1.39,0,0,1-.29-.31,1.87,1.87,0,0,1-.17-.3c0-.09-.06-.16-.07-.21l0-.09v.09a1.25,1.25,0,0,0,0,.24,1.2,1.2,0,0,0,.06.39,1.41,1.41,0,0,0,.23.46,1.55,1.55,0,0,0,.45.43,1.81,1.81,0,0,1,.85-3.42A1.8,1.8,0,0,1,44.09,18.79ZM9.72,14.48a3.36,3.36,0,0,1-.85-.23,3.34,3.34,0,0,1,1.62-3.38,3,3,0,0,1,.92.75l-.07-.06a1.33,1.33,0,0,0-.19-.14L11,11.3a2.56,2.56,0,0,0-.43-.17l.17.15.16.16.14.16a2,2,0,0,1,.14.16c0,.06.08.11.12.18l.1.18.09.18a1.54,1.54,0,0,1,.08.19,1.52,1.52,0,0,1,.06.2l.06.2c0,.13,0,.27.06.4s0,.27,0,.41,0,.14,0,.21v0a2.81,2.81,0,0,1-.49.16l-.35.06a2,2,0,0,1-.34,0h0l-.17,0H9.8a3.64,3.64,0,0,1-.73-.09A2.21,2.21,0,0,0,9.72,14.48Zm-.3,4.27h0a1.14,1.14,0,0,1-.4-.08,1.77,1.77,0,0,1-.33-.19,1.39,1.39,0,0,1-.37-.5,1.84,1.84,0,0,1-.06-.18l0-.07,0,.07c0,.05,0,.11,0,.2a1.22,1.22,0,0,0,.24.7,1.25,1.25,0,0,0,.37.35,1.48,1.48,0,0,1,.69-2.8,1.47,1.47,0,0,1,1.32.8,1.29,1.29,0,0,0-.35-.38,1.08,1.08,0,0,0-.39-.19,1,1,0,0,0-.31,0l-.2,0H9.47l.07,0,.18.06a1.39,1.39,0,0,1,.5.37,1.24,1.24,0,0,1,.27.74.13.13,0,0,1,0,.06,1,1,0,1,0-1.06,1ZM7.16,20.26,6.76,7,6.41,19V6.11h.75ZM9.54,6.33c.55.91,2.82,4.42,5.49,4.42,15.69,0,20.19-1.83,25.94-1.83a5.22,5.22,0,0,1,2.46.52,6.27,6.27,0,0,0-1.06-.24,12.52,12.52,0,0,0-2.46-.09c-.66,0-1.1.07-1.1.07s.44.05,1.09.15a11.59,11.59,0,0,1,2.31.53,6.56,6.56,0,0,1,1.52.79,22.66,22.66,0,0,0-6.74.47c-9.68,1.69-20.38,1.57-23,.61A7.05,7.05,0,0,1,9.54,6.33Zm5.23,6.33-.32-.11.33.08c.21,0,.52.11.92.17a32.54,32.54,0,0,0,3.35.25c1.39,0,3,0,4.74,0l2.68-.12c.91,0,1.83-.12,2.75-.2s1.85-.18,2.75-.29,1.8-.23,2.65-.37,1.69-.27,2.47-.42,1.54-.24,2.24-.34a31.75,31.75,0,0,1,3.36-.25c.41,0,.73,0,1,0l.33,0h-.33c-.22,0-.54,0-.94,0s-.9.08-1.46.16-1.19.17-1.87.29-1.43.26-2.2.43-1.61.35-2.47.5S33,12.84,32,13s-1.84.22-2.77.31-1.86.14-2.77.19-1.82.07-2.7.07c-1.74,0-3.38,0-4.77-.17a28.91,28.91,0,0,1-3.35-.46A9.35,9.35,0,0,1,14.77,12.66Zm20.15,5.71-.24-.12-.27-.12c-.38-.16-.82-.29-1.3-.44s-1-.25-1.59-.35-1.17-.2-1.79-.29c-1.25-.18-2.59-.3-3.93-.39s-2.69-.17-3.95-.22-2.44-.09-3.45-.11L15,16.24l.93,0,2.44,0c1,0,2.2,0,3.46,0s2.61.09,4,.19,2.69.24,3.94.42c.63.1,1.23.2,1.8.33s1.1.26,1.59.41a10.15,10.15,0,0,1,1.3.49l.27.13.24.14a2.65,2.65,0,0,1,.41.27,1.59,1.59,0,0,1,.3.25l.12.11a1,1,0,0,0,.08.11l.14.2-.16-.19-.08-.1-.12-.1a1.58,1.58,0,0,0-.31-.24A3.89,3.89,0,0,0,34.92,18.37Zm.66,8.31a26,26,0,0,0,1.27-7.33c.16.41.32.86.47,1.33a24.24,24.24,0,0,1,.74,3,31.56,31.56,0,0,1,.41,5.87c0,.81,0,1.48-.09,1.95l-.05.74.11-.73c.07-.47.16-1.14.24-2a31.61,31.61,0,0,0,0-6q-.09-1-.27-2A38.54,38.54,0,0,1,39,34.7l7.22.37H32.74A76.94,76.94,0,0,0,35.58,26.68ZM.88,35.22a.73.73,0,0,1,.73-.73H32.09c-.07.17-.1.26-.11.27a.08.08,0,0,1,0,0,117.29,117.29,0,0,1-13.42.7H.88Zm58.49-.73a.74.74,0,0,1,.74.73v.28H57.58a25.44,25.44,0,0,1-6.91-1Zm-9,1.63c2.71,0,5,.08,6.54.1l2.48.05-2.48.06c-1.58,0-3.83.07-6.54.1s-5.87.07-9.25.08l-10.61,0-10.6,0c-3.39,0-6.54-.06-9.25-.08s-5-.08-6.55-.1l-2.48-.06,2.48-.05c1.58,0,3.84-.08,6.55-.1s5.86-.07,9.25-.08l10.6,0L41.1,36C44.48,36.05,47.64,36.1,50.35,36.12Zm-3.94-5.51c0,.52.1,1,.15,1.47s.13.87.19,1.24.13.68.19.94.12.47.17.6a2,2,0,0,0,.07.21,5.26,5.26,0,0,1-.29-.79c-.08-.26-.16-.58-.24-.94,0-.19-.08-.38-.12-.59s-.08-.42-.12-.65c-.07-.45-.14-1-.2-1.47s-.12-1.08-.16-1.66L46,28.1c0-.3,0-.6,0-.9,0-.61,0-1.22-.07-1.83,0-1.23,0-2.46,0-3.61s0-2.22.06-3.14,0-1.69,0-2.23v-.84s.12,1.22.15,3.07c0,.92,0,2,0,3.14s0,2.38,0,3.6c0,.61,0,1.23,0,1.83,0,.3,0,.6,0,.89l0,.88C46.33,29.53,46.36,30.08,46.41,30.61Zm2.65-5.71v2.29a9.1,9.1,0,0,1-1.24-2.84h.7A.55.55,0,0,1,49.06,24.9Zm.78-.53a1.42,1.42,0,0,0-1.32-.89H46.83c0-.86,0-1.69,0-2.49,0-1.33,0-2.56,0-3.7h3.3v2.93a2.3,2.3,0,0,0,2.3,2.3,2.22,2.22,0,0,0,1-.23v1.52a1.47,1.47,0,0,0,.11.56Z"/><path class="cls-4" d="M2.13,39.78s7.64,6.79,7.26,21.39l34.7-15.35L9.86,60.47A46.36,46.36,0,0,0,7.64,47.71,20.89,20.89,0,0,0,2.13,39.78Z"/><path class="cls-5" d="M3.14,38.16s7.65,6.78,7.26,21.38L45.11,44.2,10.88,58.84A46.15,46.15,0,0,0,8.65,46.08,20.69,20.69,0,0,0,3.14,38.16Z"/></g></g></svg>