<svg xmlns="http://www.w3.org/2000/svg" viewBox="0 0 268.01 78.61"><defs><style>.cls-1{font-size:50.85px;font-family:Milkshake, Milkshake;}.cls-1,.cls-2,.cls-9{fill:#1b1c23;}.cls-2{font-size:19.9px;font-family:Lato-Regular, Lato;letter-spacing:0.18em;}.cls-3{letter-spacing:0.16em;}.cls-4{letter-spacing:0.18em;}.cls-5{letter-spacing:0.17em;}.cls-6{letter-spacing:0.16em;}.cls-7,.cls-8{fill:none;stroke:#c8995d;stroke-miterlimit:10;stroke-width:1.28px;}.cls-8{stroke-dasharray:3.89 3.89;}.cls-10{fill:#c8995d;}.cls-11{fill:#efe4d1;}</style></defs><title>lmc-logo</title><g id="Layer_2" data-name="Layer 2"><g id="Layer_1-2" data-name="Layer 1"><text class="cls-1" transform="matrix(1.01, 0, -0.49, 0.87, 70.61, 37.87)">Leather</text><text class="cls-2" transform="translate(72.41 68.67)">M<tspan class="cls-3" x="22.08" y="0">A</tspan><tspan class="cls-4" x="38.79" y="0">CHINE </tspan><tspan class="cls-5" x="126.25" y="0">C</tspan><tspan class="cls-6" x="142.87" y="0">O</tspan><tspan x="161.93" y="0">.</tspan></text><line class="cls-7" x1="74.27" y1="46.57" x2="76.2" y2="46.57"/><line class="cls-8" x1="80.09" y1="46.57" x2="233.9" y2="46.57"/><line class="cls-7" x1="235.85" y1="46.57" x2="237.77" y2="46.57"/><path class="cls-9" d="M58.55,24V20.3a1.43,1.43,0,0,0-1.42-1.42h-2.4v-6a2.3,2.3,0,0,0-4.59,0V15.8H45.39a5.89,5.89,0,0,0-.5-.6A5.22,5.22,0,0,0,41,13.8h-.81V8.74a.41.41,0,1,0-.82,0v5.1c-1.62.09-3.22.3-5.11.55A132.4,132.4,0,0,1,15,15.63c-2.11,0-4.25-3-4.9-4.22A.82.82,0,0,0,9.41,11H7.85v-.6L8,10.34a.72.72,0,0,0,.23-.16A.8.8,0,0,0,8,10a1.24,1.24,0,0,0-.52-.12,1.21,1.21,0,0,0-.52.12.77.77,0,0,0-.24.15.7.7,0,0,0,.24.16l.11.05V11H6.41a.82.82,0,0,0-.82.82V30.19a.83.83,0,0,0,.75.82l.32,5.22H6.43A1.47,1.47,0,0,0,6.35,36a1.2,1.2,0,0,0-.16-.24,1.16,1.16,0,0,0,0,1.52A1.2,1.2,0,0,0,6.35,37a1.47,1.47,0,0,0,.08-.25h.26l.13,2.17.33-5.5h.27a.92.92,0,0,0,.09.25.86.86,0,0,0,.16.24,1,1,0,0,0,.15-.24,1.19,1.19,0,0,0,0-1,1,1,0,0,0-.15-.24,1.2,1.2,0,0,0-.16.24.92.92,0,0,0-.09.25H7.18L7.3,31H9.15a.83.83,0,0,0,.81-.66c.4-2.11,2.1-7.59,5.07-7.59H16.2c1.87,0,6.84,0,11.15.41,6.32.61,7.67,1.75,8,2.21s.83,2.3-1,8.41c-.66,2.21-1.42,4.29-1.9,5.52H1.61A1.61,1.61,0,0,0,0,40.92v2.66c10.54,8.2,9.39,23.29,9.39,23.29L45.88,50.73,61,44.36h0V40.92a1.62,1.62,0,0,0-1.62-1.61H47.6a25.8,25.8,0,0,1-.49-3.24h1.41a1.42,1.42,0,0,0,1.42-1.42V30.94h7.12l.12,0a1.43,1.43,0,0,0,1.23-.8M57.13,19.76a.54.54,0,0,1,.54.54v3.51l-.61-3.76-.45,2.77A9.6,9.6,0,0,1,55,19.76Zm-4.69-8.22a1.32,1.32,0,0,1,1.32,1.32v.34c-.11,3.17-.29,5.56-.5,7.33l-.37-8-.56,12.14c-.63,1.24-1.21,0-1.21-.87v-11A1.32,1.32,0,0,1,52.44,11.54Zm-6.5,5.28H49.4l-2.34.27,3.08.36v.63H46.36A7.76,7.76,0,0,0,45.94,16.82Zm-1.85,7.67a1.63,1.63,0,0,0-.43-.47,1.52,1.52,0,0,0-.46-.23,2.19,2.19,0,0,0-.39-.06l-.24,0-.08,0,.08,0,.21.08a1.77,1.77,0,0,1,.3.16,2.09,2.09,0,0,1,.31.29,1.52,1.52,0,0,1,.24.41,1.33,1.33,0,0,1,.09.49v.07a1.24,1.24,0,1,0-1.3,1.26h0a1.41,1.41,0,0,1-.49-.09,1.57,1.57,0,0,1-.4-.24,1.39,1.39,0,0,1-.29-.31,2.43,2.43,0,0,1-.17-.3c0-.09-.06-.17-.07-.22l0-.08v.08a1.47,1.47,0,0,0,0,.25A1.14,1.14,0,0,0,41,26a1.36,1.36,0,0,0,.23.47,1.55,1.55,0,0,0,.45.43,1.84,1.84,0,0,1-1-1.61,1.81,1.81,0,0,1,1.82-1.81A1.78,1.78,0,0,1,44.09,24.49ZM9.72,20.17a2.69,2.69,0,0,1-.85-.23,3.33,3.33,0,0,1,1.62-3.37,3,3,0,0,1,.92.75l-.07-.06a1.39,1.39,0,0,0-.19-.15L11,17a2.56,2.56,0,0,0-.43-.17l.17.15c.05.05.11.09.16.15l.14.16a2.09,2.09,0,0,1,.14.17l.12.17.1.18.09.19a1.54,1.54,0,0,1,.08.19,1.39,1.39,0,0,1,.06.19l.06.2c0,.14,0,.27.06.41s0,.27,0,.41,0,.13,0,.2v0a4,4,0,0,1-.49.16l-.35.05-.34,0h0l-.17,0h-.18c-.12,0-.24,0-.36,0a3,3,0,0,1-.73-.09A2,2,0,0,0,9.72,20.17Zm-.3,4.28h0a1.12,1.12,0,0,1-.4-.07,1.38,1.38,0,0,1-.33-.2,1.31,1.31,0,0,1-.37-.5,1.2,1.2,0,0,1-.06-.17l0-.07,0,.07s0,.11,0,.2a1.19,1.19,0,0,0,.24.69,1.27,1.27,0,0,0,.37.36A1.49,1.49,0,0,1,9.47,22a1.48,1.48,0,0,1,1.32.81,1.48,1.48,0,0,0-.35-.39,1.23,1.23,0,0,0-.39-.18,1,1,0,0,0-.31-.05h-.2l-.07,0,.07,0a.74.74,0,0,1,.18.06,1.39,1.39,0,0,1,.5.37,1.21,1.21,0,0,1,.27.74.11.11,0,0,1,0,.05,1,1,0,0,0-1-1,1,1,0,0,0-.05,2ZM7.16,26,6.76,12.7l-.35,12V11.81h.75ZM9.54,12c.55.92,2.82,4.43,5.49,4.43,15.69,0,20.19-1.83,25.94-1.83a5.22,5.22,0,0,1,2.46.52,7.43,7.43,0,0,0-1.06-.25,13.25,13.25,0,0,0-2.46-.08l-1.1.06L39.9,15a12.42,12.42,0,0,1,2.31.54,5.87,5.87,0,0,1,1.52.79,22.32,22.32,0,0,0-6.74.47c-9.68,1.69-20.38,1.56-23,.61A7.07,7.07,0,0,1,9.54,12Zm5.23,6.34-.32-.12.33.09c.21.05.52.11.92.17a32.54,32.54,0,0,0,3.35.25c1.39.05,3,.05,4.74,0,.87,0,1.77-.07,2.68-.12s1.83-.12,2.75-.2,1.85-.17,2.75-.29,1.8-.22,2.65-.36,1.69-.28,2.47-.42,1.54-.25,2.24-.34a32.24,32.24,0,0,1,3.36-.26,7.39,7.39,0,0,1,1,0l.33,0-.33,0c-.22,0-.54,0-.94,0s-.9.08-1.46.15-1.19.18-1.87.3-1.43.26-2.2.42-1.61.35-2.47.51-1.75.29-2.66.42-1.84.22-2.77.31-1.86.15-2.77.19-1.82.08-2.7.08c-1.74,0-3.38,0-4.77-.17a26.57,26.57,0,0,1-3.35-.47A7.45,7.45,0,0,1,14.77,18.36Zm20.15,5.71-.24-.13-.27-.11a12.29,12.29,0,0,0-1.3-.44c-.49-.13-1-.26-1.59-.36s-1.17-.19-1.79-.28c-1.25-.18-2.59-.3-3.93-.4s-2.69-.17-3.95-.22S19.41,22,18.4,22L15,21.94l.93,0c.59,0,1.43,0,2.44,0s2.2,0,3.46,0,2.61.09,4,.18,2.69.24,3.94.43q.94.14,1.8.33c.57.12,1.1.26,1.59.4a11.9,11.9,0,0,1,1.3.49l.27.13L35,24a3.65,3.65,0,0,1,.41.27,1.6,1.6,0,0,1,.3.26l.12.11.08.11.14.19-.16-.18-.08-.1-.12-.11a3.08,3.08,0,0,0-.31-.24A2.73,2.73,0,0,0,34.92,24.07Zm.66,8.3A26,26,0,0,0,36.85,25c.16.42.32.87.47,1.33a24.85,24.85,0,0,1,.74,3,31.56,31.56,0,0,1,.41,5.87c0,.81,0,1.48-.09,1.95l-.05.74.11-.73c.07-.47.16-1.14.24-1.95a31.61,31.61,0,0,0,0-6c-.06-.67-.15-1.34-.27-2A38.6,38.6,0,0,1,39,40.4l7.22.37H32.74A76.65,76.65,0,0,0,35.58,32.37ZM.88,40.92a.74.74,0,0,1,.73-.74H32.09a2.6,2.6,0,0,1-.11.27s0,0,0,0a115,115,0,0,1-13.42.7H.88Zm58.49-.74a.74.74,0,0,1,.74.74v.27H57.58a25,25,0,0,1-6.91-1Zm-9,1.64c2.71,0,5,.08,6.54.1l2.48,0L56.89,42c-1.58,0-3.83.08-6.54.1s-5.87.08-9.25.09l-10.61,0-10.6,0c-3.39,0-6.54-.06-9.25-.09s-5-.07-6.55-.1L1.61,42l2.48,0c1.58,0,3.84-.08,6.55-.1s5.86-.08,9.25-.09l10.6,0,10.61,0C44.48,41.74,47.64,41.79,50.35,41.82ZM46.41,36.3c0,.53.1,1,.15,1.48s.13.87.19,1.23.13.69.19,1,.12.46.17.6a2,2,0,0,0,.07.21,5.17,5.17,0,0,1-.29-.8c-.08-.25-.16-.57-.24-.94,0-.18-.08-.37-.12-.58l-.12-.65c-.07-.46-.14-.95-.2-1.48s-.12-1.08-.16-1.65L46,33.79c0-.29,0-.59,0-.9,0-.6,0-1.21-.07-1.83,0-1.23,0-2.45,0-3.6s0-2.23.06-3.15,0-1.68,0-2.22v-.84s.12,1.22.15,3.06c0,.92,0,2,0,3.15s0,2.37,0,3.6c0,.61,0,1.22,0,1.82,0,.31,0,.6,0,.9l0,.87C46.33,35.22,46.36,35.78,46.41,36.3Zm2.65-5.7v2.28a9,9,0,0,1-1.24-2.83h.7A.54.54,0,0,1,49.06,30.6Zm.78-.54a1.42,1.42,0,0,0-1.32-.89H46.83c0-.86,0-1.69,0-2.49,0-1.32,0-2.56,0-3.7h3.3v2.94a2.3,2.3,0,0,0,2.3,2.3,2.36,2.36,0,0,0,1-.23V29.5a1.47,1.47,0,0,0,.11.56Z"/><path class="cls-10" d="M2.13,45.48s7.64,6.79,7.26,21.39l34.7-15.35L9.86,66.17A46.46,46.46,0,0,0,7.64,53.4,20.8,20.8,0,0,0,2.13,45.48Z"/><path class="cls-11" d="M3.14,43.85s7.65,6.79,7.26,21.39L45.11,49.89,10.88,64.54A46.25,46.25,0,0,0,8.65,51.77,20.69,20.69,0,0,0,3.14,43.85Z"/></g></g></svg>